<svg version="1.2" baseProfile="tiny-ps" xmlns="http://www.w3.org/2000/svg" viewBox="0 0 32 32" width="32" height="32">
	<title>Landings</title>
	<style>
		tspan { white-space:pre }
		.shp0 { fill: #ffffff } 
	</style>
	<g id="Landings">
		<g id="Block_02">
			<g id="Peace_of_mind">
				<g id="Content">
					<path id="Path 1" fill-rule="evenodd" class="shp0" d="M16 18L16 26C16 28.2 17.8 30 20 30C22.2 30 24 28.2 24 26L26 26C26 29.3 23.3 32 20 32C16.7 32 14 29.3 14 26L14 18L0 18L0 16C0 7.15 7.15 0 16 0C24.85 0 32 7.15 32 16L32 18L16 18ZM16 2C8.25 2 2 8.25 2 16L30 16C30 8.25 23.75 2 16 2Z" />
				</g>
			</g>
		</g>
	</g>
</svg>