<svg version="1.2" baseProfile="tiny-ps" xmlns="http://www.w3.org/2000/svg" viewBox="0 0 30 32" width="30" height="32">
	<title>Landings</title>
	<style>
		tspan { white-space:pre }
		.shp0 { fill: #ffffff } 
	</style>
	<g id="Landings">
		<g id="Block_02">
			<g id="Inbox">
				<g id="Content">
					<path id="Path 11" fill-rule="evenodd" class="shp0" d="M28 32L2 32C0.9 32 0 31.1 0 30L0 18L4 4L8 4L8 6L5.45 6L2 18L10 18L10 22L20 22L20 18L27.95 18L24.5 6L22 6L22 4L26 4L30 18L30 30C30 31.1 29.1 32 28 32ZM15 18L14.95 18C14.96 18 14.97 18 14.98 18C14.99 18 14.99 18 15 18ZM14.55 17.9C14.35 17.85 14.15 17.75 14 17.6L8.35 11.9C7.9 11.45 7.9 10.7 8.35 10.3C8.8 9.85 9.5 9.85 9.95 10.3L13.95 14.35L13.95 1C13.95 0.45 14.4 0 15 0C15.55 0 16.05 0.45 16.05 1L16.05 14.25L20 10.3C20.45 9.85 21.15 9.85 21.6 10.3C22.05 10.75 22.05 11.5 21.6 11.9L15.9 17.6C15.75 17.75 15.6 17.8 15.45 17.85C15.31 17.95 15.16 18 14.98 18C14.84 18 14.69 17.95 14.55 17.9ZM28 21C28 20.45 27.55 20 27 20L22 20L22 24L8 24L8 20L3 20C2.45 20 2 20.45 2 21L2 29C2 29.55 2.45 30 3 30L27 30C27.55 30 28 29.55 28 29L28 21Z" />
				</g>
			</g>
		</g>
	</g>
</svg>