<svg version="1.2" baseProfile="tiny-ps" xmlns="http://www.w3.org/2000/svg" viewBox="0 0 33 32" width="33" height="32">
	<title>Landings</title>
	<style>
		tspan { white-space:pre }
		.shp0 { fill: #ffffff } 
	</style>
	<g id="Landings">
		<g id="Block_02">
			<g id="Settings">
				<g id="Content">
					<path id="Path 10" fill-rule="evenodd" class="shp0" d="M32.15 16C32.15 18.1 30.55 19.8 28.45 19.95C28.25 20.65 27.95 21.3 27.65 21.9C28.95 23.45 28.95 25.8 27.45 27.25C25.95 28.75 23.65 28.75 22.1 27.45C21.45 27.8 20.8 28.05 20.15 28.25C19.95 30.4 18.25 32 16.15 32C14.05 32 12.35 30.4 12.2 28.3C11.5 28.1 10.85 27.8 10.25 27.5C8.7 28.8 6.35 28.8 4.9 27.3C3.4 25.8 3.4 23.5 4.7 21.95C4.35 21.3 4.1 20.65 3.9 20C1.75 19.8 0.15 18.1 0.15 16C0.15 13.9 1.75 12.2 3.85 12.05C4.05 11.35 4.35 10.7 4.65 10.1C3.35 8.5 3.35 6.15 4.85 4.7C6.35 3.2 8.65 3.2 10.2 4.5C10.85 4.15 11.5 3.9 12.15 3.7C12.35 1.6 14.05 0 16.15 0C18.25 0 19.95 1.6 20.1 3.7C20.8 3.9 21.45 4.2 22.05 4.5C23.6 3.2 25.95 3.2 27.4 4.7C28.9 6.2 28.9 8.5 27.6 10.05C27.95 10.7 28.2 11.35 28.4 12C30.55 12.2 32.15 13.9 32.15 16ZM26.95 14C26.65 12.45 26.05 11.05 25.2 9.8L26.05 8.95C26.85 8.15 26.85 6.9 26.05 6.1C25.25 5.3 24 5.3 23.2 6.1L22.35 6.95C21.1 6.1 19.7 5.45 18.15 5.2L18.15 4C18.15 2.9 17.25 2 16.15 2C15.05 2 14.15 2.9 14.15 4L14.15 5.2C12.6 5.5 11.2 6.1 9.95 6.95L9.1 6.1C8.3 5.3 7.05 5.3 6.25 6.1C5.45 6.9 5.45 8.15 6.25 8.95L7.1 9.8C6.25 11.05 5.6 12.45 5.35 14L4.15 14C3.05 14 2.15 14.9 2.15 16C2.15 17.1 3.05 18 4.15 18L5.35 18C5.65 19.55 6.25 20.95 7.1 22.2L6.25 23.05C5.45 23.85 5.45 25.1 6.25 25.9C7.05 26.7 8.3 26.7 9.1 25.9L9.95 25.05C11.2 25.9 12.6 26.55 14.15 26.8L14.15 28C14.15 29.1 15.05 30 16.15 30C17.25 30 18.15 29.1 18.15 28L18.15 26.8C19.7 26.5 21.1 25.9 22.35 25.05L23.2 25.9C24 26.7 25.25 26.7 26.05 25.9C26.85 25.1 26.85 23.85 26.05 23.05L25.2 22.2C26.05 20.95 26.7 19.55 26.95 18L28.15 18C29.25 18 30.15 17.1 30.15 16C30.15 14.9 29.25 14 28.15 14L26.95 14ZM16.15 22C12.85 22 10.15 19.3 10.15 16C10.15 12.7 12.85 10 16.15 10C19.45 10 22.15 12.7 22.15 16C22.15 19.3 19.45 22 16.15 22ZM16.15 12C13.95 12 12.15 13.8 12.15 16C12.15 18.2 13.95 20 16.15 20C18.35 20 20.15 18.2 20.15 16C20.15 13.8 18.35 12 16.15 12Z" />
				</g>
			</g>
		</g>
	</g>
</svg>