<svg version="1.2" baseProfile="tiny-ps" xmlns="http://www.w3.org/2000/svg" viewBox="0 0 25 33" width="25" height="33">
	<title>Landings</title>
	<style>
		tspan { white-space:pre }
		.shp0 { fill: #ffffff } 
	</style>
	<g id="Landings">
		<g id="Block_02">
			<g id="Coffee">
				<g id="Content">
					<path id="Path 7" fill-rule="evenodd" class="shp0" d="M22.46 12.25L22.46 30.52C22.46 31.7 21.54 32.67 20.42 32.67L4.08 32.67C2.96 32.67 2.04 31.7 2.04 30.52L2.04 12.25C0.92 12.25 0 11.02 0 9.54L0 6.84C0 5.31 0.92 4.08 2.04 4.08L22.46 4.08C23.58 4.08 24.5 5.31 24.5 6.79L24.5 9.49C24.5 11.02 23.58 12.25 22.46 12.25ZM4.08 29.66C4.08 30.22 4.54 30.62 5.1 30.62L19.4 30.62C19.96 30.62 20.42 30.17 20.42 29.66L20.42 22.46L18.37 22.46C18.37 25.83 15.62 28.58 12.25 28.58C8.88 28.58 6.12 25.83 6.12 22.46L4.08 22.46L4.08 29.66ZM16.33 22.46C16.33 20.21 14.5 18.37 12.25 18.37C10 18.37 8.17 20.21 8.17 22.46C8.17 24.7 10 26.54 12.25 26.54C14.5 26.54 16.33 24.7 16.33 22.46ZM4.08 20.42L6.48 20.42C7.35 18.07 9.54 16.33 12.25 16.33C14.9 16.33 17.15 18.02 18.02 20.42L20.42 20.42L20.42 12.25L4.08 12.25L4.08 20.42ZM21.44 6.12L3.06 6.12C2.5 6.12 2.04 7.04 2.04 8.17C2.04 9.29 2.5 10.21 3.06 10.21L21.44 10.21C22 10.21 22.46 9.29 22.46 8.17C22.46 7.04 22 6.12 21.44 6.12ZM19.4 2.04L5.1 2.04C4.54 2.04 4.08 1.58 4.08 1.02C4.08 0.46 4.54 0 5.1 0L19.4 0C19.96 0 20.42 0.46 20.42 1.02C20.42 1.58 19.96 2.04 19.4 2.04Z" />
				</g>
			</g>
		</g>
	</g>
</svg>