<svg version="1.2" baseProfile="tiny-ps" xmlns="http://www.w3.org/2000/svg" viewBox="0 0 34 38" width="34" height="38">
	<title>Landings</title>
	<style>
		tspan { white-space:pre }
		.shp0 { fill: #ffffff } 
	</style>
	<g id="Landings">
		<g id="Block_02">
			<g id="Rewards">
				<g id="Content">
					<path id="Path 8" fill-rule="evenodd" class="shp0" d="M34 14.47L31.73 14.47L31.73 37.13L2.27 37.13L2.27 14.47L0 14.47L0 7.67L9.69 7.67C9.29 6.99 9.07 6.25 9.07 5.4C9.07 2.91 11.11 0.87 13.6 0.87C14.96 0.87 16.15 1.49 17 2.45C17.85 1.49 19.04 0.87 20.4 0.87C22.89 0.87 24.93 2.91 24.93 5.4C24.93 6.25 24.71 6.99 24.31 7.67L34 7.67L34 14.47ZM18.13 34.87L29.47 34.87L29.47 25.8L18.13 25.8L18.13 34.87ZM18.13 23.53L29.47 23.53L29.47 14.47L18.13 14.47L18.13 23.53ZM4.53 34.87L15.87 34.87L15.87 25.8L4.53 25.8L4.53 34.87ZM4.53 23.53L15.87 23.53L15.87 14.47L4.53 14.47L4.53 23.53ZM13.6 3.13C12.35 3.13 11.33 4.15 11.33 5.4C11.33 6.65 12.35 7.67 13.6 7.67C14.85 7.67 15.87 6.65 15.87 5.4C15.87 4.15 14.85 3.13 13.6 3.13ZM20.4 3.13C19.15 3.13 18.13 4.15 18.13 5.4C18.13 6.65 19.15 7.67 20.4 7.67C21.65 7.67 22.67 6.65 22.67 5.4C22.67 4.15 21.65 3.13 20.4 3.13ZM31.73 9.93L2.27 9.93L2.27 12.2L31.73 12.2L31.73 9.93Z" />
				</g>
			</g>
		</g>
	</g>
</svg>